<svg id="Layer_1" data-name="Layer 1" xmlns="http://www.w3.org/2000/svg" viewBox="0 0 510 512"><defs><style>.cls-1{fill:#333;}</style></defs><title>add_user</title><path class="cls-1" d="M227,232A116,116,0,1,1,343,116,116.13,116.13,0,0,1,227,232Z" transform="translate(-2)"/><path class="cls-1" d="M272,317a134.18,134.18,0,0,1,19.71-70.17,145.68,145.68,0,0,1-146.14-9.7A225.45,225.45,0,0,0,2,447v50a15,15,0,0,0,15,15H437a15,15,0,0,0,15-15V447c0-.9,0-1.81,0-2.71A134.24,134.24,0,0,1,407,452C332.56,452,272,391.44,272,317Z" transform="translate(-2)"/><path class="cls-1" d="M407,212A105,105,0,1,0,512,317,105.12,105.12,0,0,0,407,212Zm30,120H422v15a15,15,0,0,1-30,0V332H377a15,15,0,0,1,0-30h15V287a15,15,0,0,1,30,0v15h15a15,15,0,0,1,0,30Z" transform="translate(-2)"/></svg>