<svg id="Layer_1" data-name="Layer 1" xmlns="http://www.w3.org/2000/svg" viewBox="0 0 426.65 512"><defs><style>.cls-1{fill:#333;}</style></defs><title>bell</title><path class="cls-1" d="M467.81,431.85,431.18,370.8a181.46,181.46,0,0,1-25.85-93.32V224c0-67.52-45.06-124.63-106.67-143V42.67a42.67,42.67,0,1,0-85.33,0V81c-61.61,18.41-106.67,75.52-106.67,143v53.48a181.41,181.41,0,0,1-25.84,93.29L44.2,431.83A10.68,10.68,0,0,0,53.33,448H458.66a10.66,10.66,0,0,0,9.15-16.15Z" transform="translate(-42.68)"/><path class="cls-1" d="M188.82,469.33a74.22,74.22,0,0,0,134.36,0Z" transform="translate(-42.68)"/></svg>