<svg id="Layer_1" data-name="Layer 1" xmlns="http://www.w3.org/2000/svg" viewBox="0 0 497 331.12"><defs><style>.cls-1{fill:#333;}</style></defs><title>card</title><path class="cls-1" d="M437.43,90.44H74.57A67.15,67.15,0,0,0,7.5,157.51v197a67.15,67.15,0,0,0,67.07,67.07H437.43a67.15,67.15,0,0,0,67.07-67.07v-197A67.15,67.15,0,0,0,437.43,90.44ZM74.57,131.26H437.43a26.29,26.29,0,0,1,26.25,26.25v15.87H48.32V157.51a26.29,26.29,0,0,1,26.25-26.25ZM437.43,380.74H74.57a26.29,26.29,0,0,1-26.25-26.25V214.21H463.68V354.49A26.29,26.29,0,0,1,437.43,380.74Z" transform="translate(-7.5 -90.44)"/></svg>