<svg id="Layer_1" data-name="Layer 1" xmlns="http://www.w3.org/2000/svg" viewBox="0 0 105.69 79.86"><defs><style>.cls-1{fill:#333;}</style></defs><title>Comment</title><path class="cls-1" d="M794.79,461c-28.59,0-51.85,16.6-51.85,37a28.35,28.35,0,0,0,4.31,14.77,35.23,35.23,0,0,0,3.21,4.39,9,9,0,0,1,2.28,7,15.58,15.58,0,0,1-3.08,7.38,23.72,23.72,0,0,1-2.09,2.45,28,28,0,0,1-3.77,3.19l-2.82,2,3.23,1.25a9.06,9.06,0,0,0,3.16.45c3.54,0,10.07-1.26,20-7.83a8.25,8.25,0,0,1,7-1,69.67,69.67,0,0,0,20.45,3c28.61,0,51.87-16.58,51.87-37S823.4,461,794.79,461Zm0,70.25a66.19,66.19,0,0,1-21.05-3.36,8.22,8.22,0,0,0-7.13.91l-0.2.13c-7.38,5-13.16,7.34-16.45,7.92,5.15-5.1,6.46-10.23,6.54-13.95v-0.34a10.7,10.7,0,0,0-2.8-7.3c-4.44-5-7-10.94-7-17.27,0-18.34,21.59-33.26,48.12-33.26s48.14,14.92,48.14,33.26S821.35,531.25,794.79,531.25Z" transform="translate(-740.98 -461.01)"/></svg>