<svg id="Layer_1" data-name="Layer 1" xmlns="http://www.w3.org/2000/svg" viewBox="0 0 105.71 79.89"><defs><style>.cls-1{fill:#fa3b9c;}</style></defs><title>Comment-pink</title><path class="cls-1" d="M53.81,0C25.22,0,2,16.59,2,37A28.35,28.35,0,0,0,6.27,51.76a35.23,35.23,0,0,0,3.21,4.39,9,9,0,0,1,2.28,7,15.58,15.58,0,0,1-3.08,7.38A23.72,23.72,0,0,1,6.59,73a28,28,0,0,1-3.77,3.19L0,78.17l3.23,1.25a9.06,9.06,0,0,0,3.16.45c3.54,0,10.07-1.26,20-7.83a8.25,8.25,0,0,1,7-1,69.67,69.67,0,0,0,20.45,3c28.61,0,51.87-16.58,51.87-37S82.42,0,53.81,0Zm0,70.25a66.19,66.19,0,0,1-21-3.36,8.22,8.22,0,0,0-7.13.91l-0.2.13C18,72.92,12.27,75.26,9,75.84c5.15-5.1,6.46-10.23,6.54-14V61.55a10.7,10.7,0,0,0-2.8-7.3A25.94,25.94,0,0,1,5.72,37c0-18.34,21.59-33.26,48.12-33.26S102,18.64,102,37,80.37,70.24,53.81,70.24Z" transform="translate(0 0.01)"/></svg>