<?xml version="1.0" encoding="utf-8"?>
<!-- Generator: Adobe Illustrator 22.1.0, SVG Export Plug-In . SVG Version: 6.00 Build 0)  -->
<svg version="1.1" id="Layer_1" xmlns="http://www.w3.org/2000/svg" xmlns:xlink="http://www.w3.org/1999/xlink" x="0px" y="0px"
	 viewBox="0 0 512 353.7" style="enable-background:new 0 0 512 353.7;" xml:space="preserve">
<style type="text/css">
	.st0{fill:#A2A2A2;}
</style>
<path class="st0" d="M501.3,37.1c-4.4-15.1-15.1-22.6-30-25C328.2,12.2,185,12.2,41.9,12.3c-17,3.4-28.8,12.3-31.2,30.6
	c-0.1,89.4-0.1,178.8-0.2,268.1c2.7,17.7,13.5,27.4,30.6,30.7c143.6,0.1,287.2,0.1,430.8,0.2c14.6-2.8,25.7-9.6,29.4-25.2
	C501.3,223.5,501.3,130.3,501.3,37.1z M479.1,174.1c-1.8,37.4-1.6,74.9-0.1,112.3c1,24.3-8.9,30.9-31.9,30.7
	c-126.5-0.8-253.1-1-379.6,0.1c-25.9,0.2-33.9-9.1-32.8-33.9c1.6-36.1,1.6-72.3,0-108.4c-1-22.1,6-28.8,28.2-28.3
	c64.5,1.4,129.1,0.5,193.7,0.5c64.6,0,129.1,0.7,193.7-0.5C471.3,146.1,480.3,151,479.1,174.1z M447.4,89.3
	c-63.3-0.3-126.6-0.1-189.9-0.1c-64.6,0-129.2-0.2-193.8,0.1c-16.5,0.1-30.2,1.2-29.3-23.2c0.8-22,8.7-29.3,30.1-29.2
	c127.9,0.6,255.8,0.5,383.7,0c20.4-0.1,30.2,5.2,31.2,28C480.7,92.1,464.7,89.4,447.4,89.3z"/>
<path class="st0" d="M130.3,254c14.1,0,28.2-0.1,42.3,0.1c9.6,0.1,18.4,2.1,18.3,14.3c-0.1,12.6-10.5,13.8-19.1,14
	c-26.9,0.8-53.9,0.6-80.8,0.4c-11.5-0.1-21.6-4.8-20.3-17.5c1.1-10.7,11.5-11.7,21.1-11.4C104.7,254.2,117.5,253.9,130.3,254z"/>
</svg>
