<svg id="Layer_1" data-name="Layer 1" xmlns="http://www.w3.org/2000/svg" viewBox="0 0 88.97 75.41"><defs><style>.cls-1{fill:#333;}</style></defs><title>Heart</title><path class="cls-1" d="M259.22,479.62c-1.29-13-11.41-22.48-24.08-22.48a24.47,24.47,0,0,0-20.5,10.77,23.51,23.51,0,0,0-20-10.77c-12.67,0-22.78,9.45-24.08,22.48a21.09,21.09,0,0,0,.75,8.55c1.85,7.13,7.76,12.93,14,18.05l29.34,26.33,30.45-27.1c6.22-5.13,11.55-10.16,13.4-17.28a21.25,21.25,0,0,0,.75-8.55h0Zm-4.08,7.83c-1.69,6.51-6.89,11.4-12.58,16.1l-27.91,24.8-27.36-24.87c-6.4-5.78-11-9.51-12.64-16a18.57,18.57,0,0,1-.71-7.34l0-.15c1.11-11.42,9.81-19.7,20.68-19.7A20.07,20.07,0,0,1,213.05,472l1.58,3.4,1.58-3.4a20.75,20.75,0,0,1,18.94-11.72c10.86,0,19.56,8.29,20.69,19.85a18.55,18.55,0,0,1-.71,7.34h0Zm0,0" transform="translate(-170.4 -457.14)"/></svg>