<?xml version="1.0" encoding="utf-8"?>
<!-- Generator: Adobe Illustrator 19.2.1, SVG Export Plug-In . SVG Version: 6.00 Build 0)  -->
<svg version="1.1" id="Layer_1" xmlns="http://www.w3.org/2000/svg" xmlns:xlink="http://www.w3.org/1999/xlink" x="0px" y="0px"
	 viewBox="0 0 82.1 94.3" style="enable-background:new 0 0 82.1 94.3;" xml:space="preserve">
<style type="text/css">
	.st0{fill:#B5B7B9;}
</style>
<title>home</title>
<path class="st0" d="M37.6,1.4L1.4,38.7C0.5,39.6,0,40.8,0,42v47.5c0,2.6,2.1,4.8,4.8,4.8l0,0h21.1c2.6,0,4.8-2.1,4.8-4.8v0V67.2
	c0-5.7,4.6-10.3,10.3-10.3l0,0l0,0c5.7,0,10.3,4.6,10.3,10.3v0v22.3c0,2.6,2.1,4.8,4.8,4.8l0,0h21.4c2.6,0,4.8-2.1,4.8-4.8v0V42
	c0-1.2-0.5-2.4-1.4-3.3L44.5,1.4C42.6-0.4,39.6-0.5,37.6,1.4C37.7,1.4,37.7,1.4,37.6,1.4z"/>
</svg>
