<svg id="Layer_1" data-name="Layer 1" xmlns="http://www.w3.org/2000/svg" viewBox="0 0 82.14 94.33"><defs><style>.cls-1{fill:#010101;}</style></defs><title>home</title><path class="cls-1" d="M793.2,197.39l-36.29,37.27a4.78,4.78,0,0,0-1.36,3.33v47.5a4.78,4.78,0,0,0,4.78,4.78h21.11a4.78,4.78,0,0,0,4.78-4.78V263.16a10.27,10.27,0,0,1,10.27-10.27h0a10.27,10.27,0,0,1,10.27,10.27V285.5a4.78,4.78,0,0,0,4.78,4.78h21.37a4.78,4.78,0,0,0,4.78-4.78V238a4.78,4.78,0,0,0-1.36-3.33l-36.29-37.27A4.78,4.78,0,0,0,793.2,197.39Z" transform="translate(-755.56 -195.95)"/></svg>