<svg id="Layer_1" data-name="Layer 1" xmlns="http://www.w3.org/2000/svg" viewBox="0 0 96.44 73.71"><title>inbox</title><path d="M265.89,239.64l-0.61-1.08-20-35.33H190.07l-20,35.33-0.61,1.08,0,0v37.25h96.44V239.69Zm-90.71-1.08,17.57-31.05h49.89l17.57,31.05,0.61,1.08H230.7a13.59,13.59,0,0,1,.28,2.8,9.23,9.23,0,0,1-.12,1.62,13.27,13.27,0,0,1-26.35,0,9.23,9.23,0,0,1-.12-1.62,13.59,13.59,0,0,1,.28-2.8H174.57Zm86.3,34H173.91V244.06h25.46a18.39,18.39,0,0,0,36.64,0h25.46v28.47Z" transform="translate(-169.47 -203.23)"/></svg>