<svg id="Layer_1" data-name="Layer 1" xmlns="http://www.w3.org/2000/svg" viewBox="0 0 490.3 372.4"><defs><style>.cls-1{fill:#333;}</style></defs><title>log_out</title><path class="cls-1" d="M10.85,131.9V380.1A62.22,62.22,0,0,0,73,442.2h200.6a62.22,62.22,0,0,0,62.1-62.1V339.9a12.3,12.3,0,1,0-24.6,0v40.2a37.68,37.68,0,0,1-37.6,37.6H73a37.68,37.68,0,0,1-37.6-37.6V131.9A37.68,37.68,0,0,1,73,94.3h200.6a37.68,37.68,0,0,1,37.6,37.6v40.2a12.3,12.3,0,0,0,24.6,0V131.9a62.22,62.22,0,0,0-62.1-62.1H73A62.16,62.16,0,0,0,10.85,131.9Z" transform="translate(-10.85 -69.8)"/><path class="cls-1" d="M396.25,348.5a12.31,12.31,0,0,0,17.4,0l83.9-83.9a12.19,12.19,0,0,0,0-17.3l-83.9-83.9a12.23,12.23,0,0,0-17.3,17.3l63,63H229.45a12.3,12.3,0,1,0,0,24.6h229.8l-63,63A12.07,12.07,0,0,0,396.25,348.5Z" transform="translate(-10.85 -69.8)"/></svg>