<?xml version="1.0" encoding="utf-8"?>
<!-- Generator: Adobe Illustrator 22.1.0, SVG Export Plug-In . SVG Version: 6.00 Build 0)  -->
<svg version="1.1" id="Layer_1" xmlns="http://www.w3.org/2000/svg" xmlns:xlink="http://www.w3.org/1999/xlink" x="0px" y="0px"
	 viewBox="0 0 426.7 426.7" style="enable-background:new 0 0 426.7 426.7;" xml:space="preserve">
<style type="text/css">
	.st0{fill:#C0C0C0;}
</style>
<path class="st0" d="M405.3,192H234.7V21.3c0-11.8-9.6-21.3-21.3-21.3C201.6,0,192,9.6,192,21.3V192H21.3C9.6,192,0,201.6,0,213.3
	c0,11.8,9.6,21.3,21.3,21.3H192v170.7c0,11.8,9.6,21.3,21.3,21.3c11.8,0,21.3-9.6,21.3-21.3V234.7h170.7c11.8,0,21.3-9.6,21.3-21.3
	C426.7,201.6,417.1,192,405.3,192z"/>
</svg>
