<?xml version="1.0" encoding="utf-8"?>
<!-- Generator: Adobe Illustrator 19.2.1, SVG Export Plug-In . SVG Version: 6.00 Build 0)  -->
<svg version="1.1" id="Layer_1" xmlns="http://www.w3.org/2000/svg" xmlns:xlink="http://www.w3.org/1999/xlink" x="0px" y="0px"
	 viewBox="0 0 76.8 95.3" style="enable-background:new 0 0 76.8 95.3;" xml:space="preserve">
<style type="text/css">
	.st0{fill:#B5B7B9;}
</style>
<title>Notification</title>
<path class="st0" d="M0,80.1v-0.5c0-0.8,0-1.7,0-2.5c0-0.3,0.2-0.6,0.4-0.8C3,74,5.2,71.1,6.8,67.9c1-2.2,1.7-4.4,2.2-6.8
	c0.6-3.5,0.8-7.1,0.7-10.6V37.6c0-4,0.8-8,2.6-11.6c2.7-5.7,7.1-10.3,12.7-13.2c1.1-0.6,2.3-1,3.4-1.5c0.4-0.1,0.6-0.4,0.6-0.8
	c0,0,0,0,0-0.1C28.4,5.2,32.3,0.5,37.5,0c1.3-0.1,2.6,0,3.8,0.4c2.6,0.8,4.8,2.7,5.9,5.2c0.7,1.5,1,3.2,0.8,4.8
	c0,0.3,0.2,0.6,0.5,0.7c5.9,2.1,10.9,6,14.2,11.3c2.1,3.1,3.5,6.6,4.1,10.3c0.3,1.8,0.4,3.6,0.4,5.5c0.1,4.9,0,9.8,0,14.7
	c-0.2,5,0.8,9.9,2.8,14.5c1.6,3.5,4,6,6.4,8.9c0.2,0.2,0.3,0.4,0.4,0.6c0,1,0,2.1,0,3.2L0,80.1z"/>
<path class="st0" d="M27.5,84.4h21.8c0,3.6-1.8,6.9-4.7,8.8c-3.4,2.5-7.9,2.6-11.6,0.5C29.5,91.8,27.8,88.5,27.5,84.4z"/>
</svg>
