<svg id="Layer_1" data-name="Layer 1" xmlns="http://www.w3.org/2000/svg" viewBox="0 0 76.8 95.22"><defs><style>.cls-1{fill:#020202;}</style></defs><title>Notification-black</title><path class="cls-1" d="M0,80.1v-3a1.23,1.23,0,0,1,.4-0.8,28,28,0,0,0,6.4-8.4A31.79,31.79,0,0,0,9,61.1a54,54,0,0,0,.7-10.6V37.6A25.89,25.89,0,0,1,12.3,26,28.5,28.5,0,0,1,25,12.8c1.1-.6,2.3-1,3.4-1.5a0.76,0.76,0,0,0,.6-0.8V10.4A9.46,9.46,0,0,1,37.5,0a9.68,9.68,0,0,1,3.8.4,9.52,9.52,0,0,1,5.9,5.2,8.9,8.9,0,0,1,.8,4.8,0.75,0.75,0,0,0,.5.7A27.4,27.4,0,0,1,62.7,22.4a25.66,25.66,0,0,1,4.1,10.3,33.13,33.13,0,0,1,.4,5.5c0.1,4.9,0,9.8,0,14.7A32.93,32.93,0,0,0,70,67.4c1.6,3.5,4,6,6.4,8.9a2.09,2.09,0,0,1,.4.6v3.2H0Z" transform="translate(0 0.04)"/><path class="cls-1" d="M27.5,84.4H49.3a10.51,10.51,0,0,1-4.7,8.8,10.61,10.61,0,0,1-11.6.5C29.5,91.8,27.8,88.5,27.5,84.4Z" transform="translate(0 0.04)"/></svg>