<?xml version="1.0" encoding="utf-8"?>
<!-- Generator: Adobe Illustrator 19.2.1, SVG Export Plug-In . SVG Version: 6.00 Build 0)  -->
<svg version="1.1" id="Layer_1" xmlns="http://www.w3.org/2000/svg" xmlns:xlink="http://www.w3.org/1999/xlink" x="0px" y="0px"
	 viewBox="0 0 87.2 86" style="enable-background:new 0 0 87.2 86;" xml:space="preserve">
<style type="text/css">
	.st0{fill:#B5B7B9;}
</style>
<title>Search</title>
<path class="st0" d="M34.1,67.4c7.9-0.1,15.5-2.9,21.4-8.1l26.4,25.8c1.2,1.2,3.1,1.2,4.3,0c1.2-1.2,1.2-3.1,0-4.3L59.8,55
	c11.7-14.4,9.5-35.6-5-47.3c-14.4-11.7-35.6-9.5-47.3,5s-9.5,35.6,5,47.3C18.6,64.9,26.2,67.5,34.1,67.4L34.1,67.4L34.1,67.4z
	 M33.4,6.1c15.2-0.2,27.7,12,27.9,27.3c0.2,15.2-12,27.7-27.3,27.9C18.8,61.4,6.3,49.3,6.1,34C6,18.8,18.2,6.4,33.4,6.1L33.4,6.1
	L33.4,6.1z"/>
</svg>
