<svg id="Layer_1" data-name="Layer 1" xmlns="http://www.w3.org/2000/svg" viewBox="0 0 512 512"><defs><style>.cls-1{fill:#333;}</style></defs><title>settings</title><path class="cls-1" d="M504,224c-4.12-2.59-36.41-21.93-49.25-27.8l-15.9-38.39c4.72-12.7,13.75-48.31,15.16-54.49a17,17,0,0,0-4.57-15.87L424.58,62.55A17.06,17.06,0,0,0,408.71,58c-4.68,1.07-41.22,10.23-54.48,15.16l-38.39-15.9C310.22,45,291.45,13.43,288,8a17.07,17.07,0,0,0-14.46-8H238.41A17.06,17.06,0,0,0,224,8c-2.59,4.12-21.93,36.41-27.8,49.25l-38.39,15.9c-12.7-4.72-48.31-13.75-54.48-15.16a17.06,17.06,0,0,0-15.87,4.57L62.55,87.42A17.06,17.06,0,0,0,58,103.29c1.07,4.68,10.23,41.22,15.16,54.48l-15.9,38.39C45,201.78,13.43,220.55,8,224a17.06,17.06,0,0,0-8,14.45v35.17A17.07,17.07,0,0,0,8,288c4.12,2.59,36.41,21.93,49.25,27.8l15.9,38.39c-4.72,12.7-13.75,48.31-15.16,54.48a17,17,0,0,0,4.57,15.87l24.86,24.87A17.07,17.07,0,0,0,103.28,454c4.69-1.07,41.23-10.23,54.49-15.16l38.39,15.9C201.78,467,220.54,498.57,224,504a17.06,17.06,0,0,0,14.45,8h35.17A17.07,17.07,0,0,0,288,504c2.59-4.12,21.93-36.41,27.8-49.25l38.39-15.9c12.7,4.72,48.31,13.75,54.48,15.16a17.06,17.06,0,0,0,15.87-4.57l24.87-24.87A17,17,0,0,0,454,408.71c-1.07-4.68-10.23-41.22-15.16-54.48l15.9-38.39C467,310.22,498.57,291.45,504,288a17.07,17.07,0,0,0,8-14.46V238.41A17.06,17.06,0,0,0,504,224ZM256,367.6A111.6,111.6,0,1,1,367.61,256,111.73,111.73,0,0,1,256,367.6Z" transform="translate(0 0)"/></svg>