<svg id="Layer_1" data-name="Layer 1" xmlns="http://www.w3.org/2000/svg" viewBox="0 0 395 395"><defs><style>.cls-1{fill:#aaa;}.cls-2{fill:none;stroke:#aaa;stroke-miterlimit:10;stroke-width:6px;}</style></defs><title>star</title><path class="cls-1" d="M137.4,310a12.17,12.17,0,0,1-11.83-14.85l14.7-64.74L90.42,186.66a12.15,12.15,0,0,1,6.89-21.24l65.95-6,26.07-61a12.15,12.15,0,0,1,22.34,0l26.07,61,65.94,6a12.15,12.15,0,0,1,6.9,21.24l-49.84,43.71,14.7,64.74a12.14,12.14,0,0,1-18.07,13.12l-56.87-34-56.87,34A12.17,12.17,0,0,1,137.4,310Zm63.1-50.37a12.22,12.22,0,0,1,6.23,1.72l53.67,32.1-13.88-61.1a12.14,12.14,0,0,1,3.85-11.83l47.07-41.28-62.27-5.65a12.13,12.13,0,0,1-10.09-7.36L200.5,108.61l-24.61,57.6a12.1,12.1,0,0,1-10.06,7.33l-62.28,5.65,47.07,41.28a12.11,12.11,0,0,1,3.84,11.84l-13.86,61.1,53.67-32.09A12.22,12.22,0,0,1,200.5,259.6Zm-37.75-99v0Zm75.47,0v0Z" transform="translate(-3 -3)"/><circle class="cls-2" cx="197.5" cy="197.5" r="194.5"/></svg>