<svg id="Layer_1" data-name="Layer 1" xmlns="http://www.w3.org/2000/svg" viewBox="0 0 123.91 72"><title>Subscription-black</title><path d="M87.9,72.1a36,36,0,1,1,.4-72,34.48,34.48,0,0,1,15.4,3.6h0A36,36,0,0,1,87.9,72.1ZM88,4.4a31.67,31.67,0,1,0,13.8,3.2h0A31.39,31.39,0,0,0,88,4.4Z" transform="translate(0 -0.1)"/><path d="M78.9,54.6a20.77,20.77,0,1,1,28.8-25.4,6.47,6.47,0,0,1,.4,1.3l3.3-2.8A24.7,24.7,0,1,0,76.1,57.5l3.2-2.7Z" transform="translate(0 -0.1)"/><path d="M110.8,26.3c0.6,1.5,1.3,3.1,1.3,3.1l4.5,0.8c-3.6,3.7-6.4,7.2-9.6,10.5-1.5-4.4-2.9-8.6-4.3-12.8l4.8,0.8" transform="translate(0 -0.1)"/><path d="M0,1.2V8.5H50.9a18.74,18.74,0,0,1,8.2-7.3H0Z" transform="translate(0 -0.1)"/><path d="M0,22.2v7.3H42.5a38.27,38.27,0,0,1,2.2-7.3H0Z" transform="translate(0 -0.1)"/><path d="M0,42.9v7.3H44.6a30.56,30.56,0,0,1-2.1-7.3H0Z" transform="translate(0 -0.1)"/><path d="M0,63.6v7.3H59.1c-4.3-1.5-6.6-4-10-7.3H0Z" transform="translate(0 -0.1)"/></svg>