<?xml version="1.0" encoding="utf-8"?>
<!-- Generator: Adobe Illustrator 19.2.1, SVG Export Plug-In . SVG Version: 6.00 Build 0)  -->
<svg version="1.1" id="Layer_1" xmlns="http://www.w3.org/2000/svg" xmlns:xlink="http://www.w3.org/1999/xlink" x="0px" y="0px"
	 viewBox="0 0 124 72.1" style="enable-background:new 0 0 124 72.1;" xml:space="preserve">
<style type="text/css">
	.st0{fill:#B5B7B9;}
</style>
<title>Subscription</title>
<g>
	<path class="st0" d="M87.9,72.1C68,72,52,55.8,52.1,35.9C52.2,16,68.4,0,88.3,0.1c5.3,0,10.6,1.2,15.4,3.6l0,0
		c17.9,8.8,25.3,30.4,16.5,48.3C114.2,64.2,101.7,72.1,87.9,72.1z M88,4.4C70.5,4.4,56.3,18.5,56.3,36s14.1,31.7,31.6,31.7
		c17.5,0,31.7-14.1,31.7-31.6c0-12.1-6.9-23.2-17.8-28.5l0,0C97.5,5.5,92.8,4.4,88,4.4z"/>
	<path class="st0" d="M78.9,54.6c-10.3-5.1-14.6-17.5-9.5-27.8c5.1-10.3,17.5-14.6,27.8-9.5c4.9,2.4,8.7,6.7,10.5,11.9
		c0.2,0.4,0.3,0.9,0.4,1.3l3.3-2.8c-4.5-12.9-18.6-19.6-31.5-15.1S60.3,31.3,64.8,44.1c2,5.7,6,10.5,11.3,13.4l3.2-2.7L78.9,54.6z"
		/>
	<path class="st0" d="M110.8,26.3c0.6,1.5,1.3,3.1,1.3,3.1l4.5,0.8c-3.6,3.7-6.4,7.2-9.6,10.5c-1.5-4.4-2.9-8.6-4.3-12.8l4.8,0.8"/>
	<path class="st0" d="M0,1.2v7.3h50.9c1.9-3.2,4.8-5.7,8.2-7.3H0z"/>
	<path class="st0" d="M0,22.2v7.3h42.5c0.5-2.5,1.2-4.9,2.2-7.3H0z"/>
	<path class="st0" d="M0,42.9v7.3h44.6c-1-2.3-1.7-4.8-2.1-7.3L0,42.9L0,42.9z"/>
	<path class="st0" d="M0,63.6v7.3h59.1c-4.3-1.5-6.6-4-10-7.3H0z"/>
</g>
</svg>
